PathFileType	4	(X/Y/Z)	OpenSim_Sub04_CSStiffKnee_Magnet.trc
DataRate	CameraRate	NumFrames	NumMarkers	Units	OrigDataRate	OrigDataStartFrame	OrigNumFrames
100	100	20	8	m	100	2780	7413
Frame#	Time	torso_imu_offset_imu	pelvis_imu_offset_imu	tibia_r_imu_offset_imu	femur_r_imu_offset_imu	tibia_l_imu_offset_imu	femur_l_imu_offset_imu	toes_r_imu_offset_imu	toes_l_imu_offset_imu
				X1	Y1	Z1	X2	Y2	Z2	X3	Y3	Z3	X4	Y4	Z4	X5	Y5	Z5	X6	Y6	Z6	X7	Y7	Z7	X8		Y8	Z8	

2780	27.79000000	0.92379308	0.22055523	-0.12731093	-0.52344742	0.14362194	-0.74040953	-0.56391660	-0.57491049	-0.04254192	-0.85247260	0.03579588	0.00799461	-0.27264776	0.75747126	0.26362066	-0.20928589	0.39910059	0.53451846	-0.71676729	-0.17675956	-0.30080589	-0.78447231	-0.29230298	0.02478810
2781	27.80000000	0.92410943	0.22526851	-0.13037882	-0.52322253	0.13590329	-0.74070075	-0.55666115	-0.58017112	-0.03900370	-0.85229587	0.02418220	0.01849484	-0.25512176	0.76102860	0.26094957	-0.21282392	0.39734177	0.52519025	-0.71711102	-0.17775400	-0.29969009	-0.78043251	-0.28135011	0.05475467
2782	27.81000000	0.92349726	0.22518491	-0.13378561	-0.52050744	0.13550805	-0.74846756	-0.55359953	-0.58596655	-0.03595833	-0.84697796	0.01447258	0.02141950	-0.24010458	0.76642888	0.26500785	-0.22280699	0.39779431	0.51907369	-0.72065536	-0.17489899	-0.29529278	-0.78338326	-0.27124064	0.09412020
2783	27.82000000	0.92848272	0.22352094	-0.13677235	-0.51867305	0.13481487	-0.75267174	-0.54901386	-0.59545111	-0.03784046	-0.84831314	0.00027827	0.03018268	-0.22698784	0.76907088	0.27181567	-0.23315838	0.39872952	0.51058678	-0.71700047	-0.17654387	-0.29441348	-0.77733938	-0.25848366	0.11745394
2784	27.83000000	0.92753373	0.22786403	-0.13126482	-0.51548851	0.12873275	-0.75111283	-0.53906514	-0.60213413	-0.03096138	-0.84874494	-0.00588223	0.03723225	-0.21470762	0.76965972	0.27842397	-0.23888019	0.39925460	0.50544382	-0.72145537	-0.17935622	-0.29255942	-0.77922843	-0.24548563	0.14053289
2785	27.84000000	0.92178056	0.22182256	-0.13077214	-0.51709219	0.13105099	-0.75367381	-0.53378491	-0.60721411	-0.02320919	-0.84837150	-0.01539786	0.04097854	-0.20444538	0.76366036	0.28428182	-0.24331273	0.39492019	0.50225292	-0.72301964	-0.17795018	-0.29191063	-0.77873105	-0.23385405	0.16282871
2786	27.85000000	0.92334777	0.21950213	-0.13575570	-0.51453548	0.12931114	-0.75228255	-0.52801087	-0.61262082	-0.01620242	-0.84963296	-0.03322830	0.04931356	-0.19882855	0.76766206	0.28690185	-0.24524535	0.38995287	0.50168654	-0.71927968	-0.17972644	-0.28389209	-0.77598177	-0.22073697	0.18030555
2787	27.86000000	0.92672011	0.22079106	-0.13237154	-0.51497900	0.12260179	-0.75368390	-0.52314437	-0.61628343	-0.01903536	-0.84654534	-0.04497250	0.04932095	-0.19220946	0.76865775	0.29757746	-0.25268794	0.39060204	0.50139555	-0.72383056	-0.17406312	-0.28379086	-0.78181798	-0.21662943	0.18479702
2788	27.87000000	0.92926132	0.22334980	-0.13340413	-0.51779207	0.12271180	-0.75846622	-0.52502262	-0.62126939	-0.01723429	-0.84174501	-0.05913305	0.05591031	-0.18217123	0.76765263	0.29661425	-0.25412096	0.38444731	0.50351253	-0.72235671	-0.17596820	-0.28613424	-0.78243704	-0.21908155	0.18180712
2789	27.88000000	0.92692427	0.21722474	-0.13601495	-0.51570520	0.12577000	-0.75666763	-0.52190136	-0.62124476	-0.01647710	-0.84565557	-0.07366816	0.05536088	-0.18773026	0.76664130	0.28789063	-0.24743642	0.37957793	0.50322489	-0.72090592	-0.17972421	-0.28493341	-0.78599877	-0.22027161	0.17575478
2790	27.89000000	0.92652855	0.21838835	-0.13397968	-0.51561502	0.12404638	-0.75803502	-0.52518492	-0.62105786	-0.02013595	-0.84578658	-0.08668211	0.05620744	-0.20501361	0.76273866	0.28821098	-0.25624514	0.37588400	0.51075757	-0.72552676	-0.17558808	-0.28175087	-0.78396948	-0.22794885	0.16620145
2791	27.90000000	0.92674559	0.21788223	-0.13281930	-0.52041205	0.11851969	-0.75449303	-0.52411730	-0.62402349	-0.02462349	-0.83976529	-0.10227155	0.06298366	-0.22467879	0.76027093	0.27590412	-0.25540538	0.37578680	0.51831842	-0.72709507	-0.17856250	-0.27473518	-0.78461204	-0.23779868	0.15528275
2792	27.91000000	0.92409561	0.21347407	-0.13430736	-0.51903915	0.11842059	-0.75887821	-0.52011571	-0.62418587	-0.02047665	-0.83703456	-0.12119940	0.07158298	-0.24326244	0.76179975	0.27110949	-0.25725412	0.37494797	0.52368850	-0.72624745	-0.17754763	-0.27768589	-0.78640731	-0.23884145	0.12863053
2793	27.92000000	0.92306557	0.21670225	-0.13588415	-0.52619208	0.12024644	-0.76364306	-0.52222398	-0.62706075	-0.01517723	-0.83330148	-0.13388875	0.07651082	-0.26274511	0.75755058	0.27126317	-0.25482939	0.36795710	0.51981506	-0.72065203	-0.17481227	-0.27420909	-0.79110194	-0.24206942	0.10864208
2794	27.93000000	0.93292963	0.21399555	-0.13301196	-0.52807611	0.11733065	-0.76404897	-0.52369831	-0.62895234	-0.01861892	-0.82986254	-0.14004948	0.08337973	-0.28037030	0.74744806	0.26759129	-0.25888570	0.36418839	0.52114443	-0.71892738	-0.17716551	-0.27608263	-0.80069197	-0.24118191	0.08405444
2795	27.94000000	0.93330499	0.21406634	-0.13617402	-0.52499816	0.11299916	-0.76532106	-0.51960268	-0.62925815	-0.01513414	-0.82779090	-0.15586640	0.08914997	-0.30342278	0.74053534	0.26793373	-0.26274490	0.36152136	0.52508327	-0.72228920	-0.17684840	-0.27615665	-0.80112366	-0.23816651	0.05447581
2796	27.95000000	0.92767349	0.21172154	-0.13383893	-0.52409933	0.10860326	-0.76450680	-0.52133087	-0.63319554	-0.01830376	-0.82342602	-0.17917497	0.09493769	-0.31988203	0.73265544	0.26707447	-0.26380767	0.35396789	0.52414713	-0.72169821	-0.17370717	-0.27685577	-0.80075118	-0.24015052	0.03268281
2797	27.96000000	0.92776077	0.21310643	-0.12936155	-0.52379368	0.10603751	-0.76597242	-0.52015056	-0.62772899	-0.01872492	-0.81986177	-0.19114952	0.09956278	-0.33174133	0.72429443	0.25592314	-0.27327870	0.34594595	0.51565237	-0.71903028	-0.17579527	-0.27658267	-0.80530536	-0.24138957	0.00706452
2798	27.97000000	0.92702386	0.21222842	-0.13505488	-0.52765517	0.10163066	-0.75806021	-0.52182893	-0.63300302	-0.01694662	-0.81853489	-0.20284195	0.10409561	-0.35156488	0.72154956	0.25024874	-0.27897356	0.34118427	0.50940989	-0.70915828	-0.17820862	-0.27362274	-0.81657038	-0.23816194	-0.01832026
2799	27.98000000	0.93083734	0.21147611	-0.13697069	-0.53107113	0.09467946	-0.75833859	-0.52583222	-0.63475564	-0.01978609	-0.81184007	-0.21484727	0.10465492	-0.36801641	0.71492753	0.24368286	-0.29217544	0.33560852	0.51628344	-0.70801243	-0.17563843	-0.27609782	-0.82010702	-0.23463506	-0.04569974
